#N canvas 62 23 1125 732 10;
#X declare -lib mrpeach;
#X msg 123 490 disconnect;
#X msg 65 327 send /x \$1;
#X obj 12 11 import mrpeach;
#X msg 226 338 send /y \$1;
#X floatatom 351 364 5 0 0 0 - - -;
#X msg 349 400 send /p \$1;
#X obj 352 329 f;
#X floatatom 352 302 5 0 0 0 - - -;
#X obj 351 275 bng 15 250 50 0 empty empty empty 17 7 0 10 -262144
-1 -1;
#X obj 245 36 vsl 15 128 0 127 0 0 empty empty empty 0 -9 0 10 -262144
-1 -1 0 1;
#X floatatom 280 294 5 0 0 0 - - -;
#X obj 305 180 /;
#X floatatom 327 136 5 0 0 0 - - -;
#X obj 283 256 +;
#X floatatom 314 231 5 0 0 0 - - -;
#X floatatom 111 130 5 0 0 0 - - -;
#X obj 83 51 vsl 15 128 0 127 0 0 empty empty empty 0 -9 0 10 -262144
-1 -1 0 1;
#X floatatom 107 283 5 0 0 0 - - -;
#X obj 129 180 /;
#X floatatom 155 129 5 0 0 0 - - -;
#X obj 110 244 +;
#X floatatom 154 213 5 0 0 0 - - -;
#X floatatom 474 360 5 0 0 0 - - -;
#X obj 473 329 f;
#X floatatom 473 315 5 0 0 0 - - -;
#X obj 472 287 bng 15 250 50 0 empty empty empty 17 7 0 10 -262144
-1 -1;
#X msg 475 390 send /p2 \$1;
#X msg 13 224 send /c \$1;
#X msg 206 228 send /c2 \$1;
#X obj 52 466 packOSC;
#X obj 57 568 udpsend;
#X floatatom 283 134 5 0 0 0 - - -;
#N canvas 0 22 450 278 (subpatch) 0;
#X array sample 9.12845e+06 float 2;
#X coords 0 1 9.12845e+06 -1 200 140 1;
#X restore 897 30 graph;
#X obj 804 279 bng 15 250 50 0 empty empty empty 17 7 0 10 -262144
-1 -1;
#X obj 809 318 openpanel;
#X msg 808 347 read -resize \$1 sample;
#X obj 807 383 soundfiler;
#X floatatom 810 427 5 0 0 0 - - -;
#X obj 822 512 bng 15 250 50 0 empty empty empty 17 7 0 10 -262144
-1 -1;
#X msg 850 512 stop;
#X obj 826 543 tabplay~ sample;
#X obj 971 678 dac~;
#X floatatom 961 208 5 0 0 0 - - -;
#X obj 963 241 phasor~;
#X obj 963 274 *~ 1;
#X floatatom 1034 254 5 0 0 0 - - -;
#X obj 967 310 +~ 1;
#X floatatom 1030 296 5 0 0 0 - - -;
#X obj 988 354 hsl 128 15 0 127 0 0 empty empty empty -2 -8 0 10 -262144
-1 -1 0 1;
#X obj 988 424 line~;
#X obj 975 614 *~;
#X obj 977 460 *~;
#X msg 988 394 \$1 20;
#X msg 116 525 connect 192.168.0.25 12001;
#X text 721 279 cargar audio;
#X text 738 516 reproducir o parar;
#X text 298 530 ip;
#X connect 0 0 30 0;
#X connect 1 0 29 0;
#X connect 3 0 29 0;
#X connect 4 0 5 0;
#X connect 5 0 29 0;
#X connect 6 0 4 0;
#X connect 7 0 6 0;
#X connect 8 0 7 0;
#X connect 9 0 31 0;
#X connect 10 0 3 0;
#X connect 11 0 13 0;
#X connect 12 0 11 1;
#X connect 13 0 10 0;
#X connect 14 0 13 1;
#X connect 15 0 18 0;
#X connect 15 0 27 0;
#X connect 16 0 15 0;
#X connect 17 0 1 0;
#X connect 18 0 20 0;
#X connect 19 0 18 1;
#X connect 20 0 17 0;
#X connect 21 0 20 1;
#X connect 22 0 26 0;
#X connect 23 0 22 0;
#X connect 24 0 23 0;
#X connect 25 0 24 0;
#X connect 26 0 29 0;
#X connect 27 0 29 0;
#X connect 28 0 29 0;
#X connect 29 0 30 0;
#X connect 31 0 11 0;
#X connect 31 0 28 0;
#X connect 33 0 34 0;
#X connect 34 0 35 0;
#X connect 35 0 36 0;
#X connect 36 0 37 0;
#X connect 38 0 40 0;
#X connect 39 0 40 0;
#X connect 40 0 50 0;
#X connect 42 0 43 0;
#X connect 43 0 44 0;
#X connect 44 0 46 0;
#X connect 45 0 44 1;
#X connect 46 0 51 0;
#X connect 47 0 46 1;
#X connect 48 0 52 0;
#X connect 49 0 51 1;
#X connect 50 0 41 0;
#X connect 50 0 41 1;
#X connect 51 0 50 1;
#X connect 52 0 49 0;
#X connect 53 0 30 0;
